<svg width="137" height="69" viewBox="0 0 137 69" fill="none" xmlns="http://www.w3.org/2000/svg">
<path d="M82.737 38.9984C82.1629 39.0152 81.5922 38.9029 81.067 38.6696C80.5417 38.4364 80.0753 38.0881 79.7019 37.6504C79.3284 37.2127 79.0575 36.6967 78.909 36.1403C78.7605 35.5839 78.7382 35.0012 78.8437 34.435C79.0496 33.1868 79.6818 32.0492 80.6319 31.2167C81.582 30.3843 82.7912 29.9088 84.0523 29.8716C84.6265 29.8547 85.1972 29.9671 85.7224 30.2003C86.2477 30.4336 86.7141 30.7819 87.0875 31.2196C87.461 31.6573 87.7319 32.1733 87.8804 32.7297C88.0289 33.2861 88.0512 33.8688 87.9457 34.435C87.7397 35.6832 87.1076 36.8208 86.1575 37.6533C85.2073 38.4857 83.9982 38.9612 82.737 38.9984ZM56.7381 34.435C56.8436 33.8688 56.8213 33.2861 56.6728 32.7297C56.5243 32.1733 56.2534 31.6573 55.88 31.2196C55.5065 30.7819 55.0401 30.4336 54.5149 30.2003C53.9896 29.9671 53.419 29.8547 52.8448 29.8716C51.5836 29.9088 50.3745 30.3843 49.4244 31.2167C48.4742 32.0492 47.8421 33.1868 47.6361 34.435C47.5306 35.0012 47.553 35.5839 47.7015 36.1403C47.85 36.6967 48.1209 37.2127 48.4943 37.6504C48.8678 38.0881 49.3342 38.4364 49.8594 38.6696C50.3846 38.9029 50.9553 39.0152 51.5295 38.9984C52.7907 38.9612 53.9998 38.4857 54.9499 37.6533C55.9 36.8208 56.5322 35.6832 56.7381 34.435ZM40.4211 15.7345C40.4865 15.2811 40.7125 14.8666 41.0578 14.5667C41.4032 14.2669 41.8447 14.1018 42.3016 14.1018H59.8858C60.1075 14.1018 60.3267 14.0552 60.5293 13.9648C60.7318 13.8745 60.9132 13.7425 61.0617 13.5774C61.2102 13.4124 61.3224 13.2179 61.3912 13.0065C61.46 12.7952 61.4837 12.5718 61.4609 12.3506C61.4058 11.9498 61.2057 11.5833 60.8987 11.3208C60.5916 11.0582 60.1991 10.9179 59.7957 10.9266L47.0034 10.8681C46.7536 10.8685 46.5062 10.8196 46.2753 10.7241C46.0444 10.6285 45.8345 10.4883 45.6577 10.3113C45.4809 10.1344 45.3407 9.92419 45.245 9.69283C45.1493 9.46146 45.1 9.21345 45.1 8.96297C45.1 8.7125 45.1493 8.46449 45.245 8.23312C45.3407 8.00176 45.4809 7.79159 45.6577 7.61463C45.8345 7.43768 46.0444 7.29743 46.2753 7.20189C46.5062 7.10635 46.7536 7.05741 47.0034 7.05786L67.4856 7.11643C67.7073 7.11642 67.9265 7.06975 68.129 6.97941C68.3316 6.88908 68.513 6.7571 68.6615 6.59203C68.81 6.42695 68.9222 6.23246 68.991 6.02113C69.0598 5.8098 69.0835 5.58634 69.0607 5.36523C69.0056 4.96441 68.8055 4.59789 68.4984 4.33534C68.1914 4.0728 67.7989 3.93254 67.3955 3.94124H46.7924L46.9862 2.59628C47.1033 1.88639 47.4628 1.23937 48.0032 0.765942C48.5436 0.29251 49.2313 0.0220865 49.9486 0.000939331H81.4407C81.7673 -0.0086464 82.0919 0.0552357 82.3906 0.187894C82.6893 0.320553 82.9546 0.518618 83.167 0.767546C83.3793 1.01647 83.5334 1.30994 83.6179 1.6264C83.7024 1.94285 83.715 2.27426 83.6551 2.59628L82.7097 9.15565H89.5008C90.1373 9.15783 90.7582 9.3532 91.2818 9.71603C91.8054 10.0789 92.2072 10.5922 92.4343 11.1884L95.9778 20.4432C96.3687 21.4641 96.492 22.5685 96.336 23.6508L95.1353 31.9826C95.0509 32.4937 94.7921 32.9596 94.403 33.3005C94.0139 33.6415 93.5187 33.8362 93.0022 33.8514H90.3283C90.3985 33.0833 90.3145 32.3089 90.0812 31.5739C89.8478 30.8389 89.47 30.1583 88.97 29.5722C88.4699 28.9861 87.8578 28.5064 87.1698 28.1615C86.4817 27.8165 85.7318 27.6134 84.9641 27.564C81.2275 27.2433 77.4958 30.0582 76.6293 33.8514H59.1214C59.192 33.0828 59.1082 32.3077 58.875 31.5721C58.6417 30.8365 58.2637 30.1553 57.7632 29.5688C57.2628 28.9822 56.6501 28.5023 55.9615 28.1573C55.2729 27.8123 54.5222 27.6093 53.7539 27.5603C50.0169 27.2414 46.2863 30.0581 45.4217 33.8514H44.3455C44.1104 33.8583 43.8767 33.8123 43.6616 33.7168C43.4465 33.6212 43.2555 33.4786 43.1025 33.2994C42.9496 33.1201 42.8387 32.9088 42.7779 32.6809C42.717 32.4531 42.7079 32.2144 42.7511 31.9826L44.3213 21.0872H52.286C52.5077 21.0872 52.7269 21.0406 52.9295 20.9502C53.132 20.8599 53.3134 20.7279 53.4619 20.5629C53.6104 20.3978 53.7226 20.2033 53.7914 19.9919C53.8602 19.7806 53.8839 19.5572 53.8611 19.3361C53.806 18.9352 53.6059 18.5687 53.2989 18.3062C52.9919 18.0436 52.5993 17.9034 52.1959 17.9121H42.3016C42.0291 17.9121 41.7598 17.8533 41.512 17.7398C41.2642 17.6262 41.0436 17.4606 40.8652 17.254C40.6869 17.0475 40.5549 16.8049 40.4783 16.5427C40.4017 16.2805 40.3822 16.0049 40.4211 15.7345ZM80.8634 21.9676L94.0165 21.9948L90.2562 12.0133C90.1977 11.8598 90.0942 11.7277 89.9594 11.6343C89.8246 11.5409 89.6647 11.4907 89.5008 11.4901H82.3733L80.8634 21.9676Z" fill="white"></path>
<path d="M6.49673 46.8227L11.6566 46.9027L15.0718 55.6073L15.2508 55.61L18.9342 47.0155L24.094 47.0955L23.8573 62.3664L19.8009 62.3035L19.9378 53.4751L19.8185 53.4732L16.2833 62.1297L13.8376 62.0917L10.5734 53.2702L10.4541 53.2683L10.3163 62.1565L6.25996 62.0936L6.49673 46.8227ZM25.8817 62.3978L26.0593 50.9446L30.1753 51.0085L29.9977 62.4616L25.8817 62.3978ZM28.1358 49.7835C27.579 49.7749 27.1047 49.5836 26.7127 49.2095C26.3207 48.8355 26.1287 48.39 26.1367 47.873C26.1448 47.3561 26.3505 46.9167 26.7538 46.555C27.1572 46.1933 27.6373 46.0168 28.194 46.0254C28.7558 46.0342 29.2301 46.2255 29.6171 46.5994C30.0091 46.9734 30.2011 47.4189 30.1931 47.9359C30.1851 48.4529 29.9794 48.8922 29.576 49.2539C29.1776 49.6157 28.6975 49.7922 28.1358 49.7835ZM37.5423 67.1132C36.3941 67.0954 35.4123 66.9161 34.5972 66.5753C33.787 66.2396 33.1601 65.7824 32.7166 65.2037C32.278 64.6301 32.0371 63.975 31.9938 63.2384L35.9607 63.2999C35.9966 63.5441 36.093 63.742 36.2498 63.8936C36.4065 64.0452 36.6087 64.1552 36.8562 64.2237C37.1087 64.2972 37.3915 64.3364 37.7047 64.3413C38.2366 64.3495 38.6785 64.2271 39.0305 63.974C39.3874 63.721 39.5711 63.2564 39.5816 62.5804L39.6117 60.6417L39.4924 60.6399C39.3372 61.0253 39.1034 61.3523 38.791 61.6209C38.4786 61.8846 38.1051 62.0851 37.6704 62.2226C37.2357 62.3551 36.7599 62.4173 36.243 62.4093C35.4277 62.3967 34.68 62.1961 33.9999 61.8077C33.3247 61.4193 32.7872 60.8118 32.3873 59.9852C31.9924 59.1587 31.8052 58.0843 31.8257 56.762C31.8471 55.3801 32.0783 54.2599 32.5192 53.4016C32.9651 52.5434 33.5317 51.9182 34.219 51.5261C34.9112 51.1341 35.6351 50.9439 36.3907 50.9557C36.9574 50.9644 37.453 51.0716 37.8774 51.277C38.3019 51.4775 38.6557 51.7441 38.939 52.0766C39.2223 52.4042 39.4355 52.763 39.5786 53.1531L39.6681 53.1545L39.6991 51.1561L43.8151 51.2199L43.6379 62.6433C43.6229 63.6126 43.3591 64.4314 42.8466 65.0997C42.3389 65.773 41.63 66.2816 40.7197 66.6255C39.8094 66.9694 38.7503 67.132 37.5423 67.1132ZM37.8094 59.5099C38.1872 59.5158 38.5119 59.4164 38.7836 59.2118C39.0603 59.0023 39.2738 58.7023 39.424 58.3118C39.5793 57.9164 39.6613 57.4404 39.6699 56.8836C39.6787 56.3169 39.6117 55.8311 39.4688 55.4261C39.3309 55.0163 39.127 54.7024 38.8569 54.4844C38.5919 54.2615 38.2704 54.1471 37.8926 54.1413C37.5148 54.1354 37.19 54.2398 36.9182 54.4543C36.6514 54.664 36.4428 54.9715 36.2923 55.3769C36.1469 55.7774 36.0698 56.261 36.061 56.8277C36.0522 57.3944 36.1143 57.8776 36.2474 58.2775C36.3854 58.6724 36.5846 58.9763 36.8448 59.1892C37.1101 59.3972 37.4316 59.5041 37.8094 59.5099ZM45.7309 62.7056L45.9085 51.2524L49.9051 51.3144L49.8714 53.4917L49.9907 53.4935C50.212 52.6914 50.5517 52.1075 51.0098 51.7417C51.4729 51.376 52.0102 51.1978 52.6216 51.2073C52.8006 51.2101 52.9768 51.2277 53.1503 51.2603C53.3289 51.2879 53.4998 51.3278 53.6631 51.3801L53.6086 54.8921C53.4059 54.8193 53.1557 54.7632 52.858 54.7238C52.5603 54.6844 52.3045 54.663 52.0908 54.6597C51.6881 54.6535 51.3238 54.7398 50.9978 54.9187C50.6769 55.0928 50.422 55.3424 50.2329 55.6676C50.044 55.9879 49.9461 56.3667 49.9394 56.8042L49.8469 62.7694L45.7309 62.7056ZM59.6937 63.1309C58.4509 63.1116 57.3909 62.8491 56.5137 62.3432C55.6366 61.8324 54.9688 61.1309 54.5102 60.2387C54.0518 59.3416 53.8317 58.3065 53.8499 57.1333C53.868 55.9602 54.1201 54.9348 54.6061 54.0573C55.0921 53.1748 55.7814 52.4944 56.6738 52.016C57.5664 51.5326 58.634 51.3005 59.8768 51.3198C61.1195 51.3391 62.1795 51.6041 63.0566 52.1149C63.9338 52.6208 64.6016 53.3223 65.0601 54.2194C65.5186 55.1115 65.7388 56.1442 65.7206 57.3174C65.7024 58.4905 65.4503 59.5183 64.9642 60.4008C64.4783 61.2783 63.789 61.9588 62.8965 62.4422C62.004 62.9206 60.9364 63.1501 59.6937 63.1309ZM59.7707 60.0891C60.1186 60.0945 60.4212 59.9823 60.6783 59.7526C60.9355 59.5229 61.137 59.1929 61.2829 58.7626C61.4288 58.3323 61.5063 57.8189 61.5156 57.2223C61.5249 56.6208 61.4633 56.1053 61.3307 55.6756C61.1983 55.241 61.0071 54.9049 60.7572 54.6673C60.5073 54.4297 60.2083 54.3082 59.8604 54.3029C59.4925 54.2972 59.175 54.4091 58.908 54.6386C58.6409 54.8682 58.4344 55.1981 58.2885 55.6284C58.1427 56.0538 58.0651 56.5672 58.0558 57.1687C58.0465 57.7652 58.1081 58.2808 58.2406 58.7154C58.3731 59.1501 58.5693 59.4862 58.8291 59.724C59.089 59.9617 59.4028 60.0834 59.7707 60.0891ZM71.5184 56.6614L71.4185 63.1038L67.3025 63.04L67.4801 51.5868L71.3873 51.6474L71.3535 53.8247L71.4728 53.8266C71.7326 53.1047 72.1789 52.5423 72.8117 52.1394C73.4494 51.7366 74.1883 51.5417 75.0284 51.5547C75.8386 51.5673 76.5391 51.7646 77.1299 52.1467C77.7257 52.5238 78.1826 53.0381 78.5007 53.6894C78.8237 54.3408 78.9763 55.0815 78.9585 55.9116L78.8452 63.219L74.7292 63.1552L74.8291 56.7128C74.8428 56.1461 74.7056 55.699 74.4173 55.3713C74.134 55.0438 73.7338 54.8759 73.2168 54.8679C72.8788 54.8627 72.5819 54.9327 72.3261 55.0779C72.0753 55.2182 71.8807 55.424 71.7422 55.6953C71.6038 55.9617 71.5292 56.2837 71.5184 56.6614ZM84.0657 63.4789C83.3349 63.4676 82.6905 63.3383 82.1325 63.0909C81.5795 62.8387 81.1478 62.4641 80.8373 61.967C80.5268 61.47 80.3774 60.8412 80.3892 60.0806C80.3989 59.4543 80.5141 58.9215 80.7347 58.4824C80.9554 58.0384 81.2593 57.6776 81.6465 57.4002C82.0336 57.1228 82.4819 56.9134 82.9912 56.7722C83.5056 56.631 84.0588 56.5426 84.6511 56.507C85.2931 56.4673 85.8085 56.4156 86.1974 56.352C86.5912 56.2835 86.8761 56.186 87.0521 56.0595C87.2282 55.928 87.3179 55.7528 87.3213 55.5341L87.3218 55.5043C87.3264 55.206 87.2156 54.9756 86.9894 54.813C86.7632 54.6504 86.4712 54.5663 86.1133 54.5607C85.7205 54.5546 85.3986 54.6367 85.1473 54.8068C84.9011 54.972 84.7504 55.2307 84.6952 55.5829L80.9074 55.5242C80.9679 54.829 81.199 54.1912 81.6008 53.6107C82.0077 53.0253 82.5941 52.562 83.3601 52.2209C84.1262 51.8748 85.0785 51.7105 86.2168 51.7282C87.0371 51.7409 87.7713 51.8492 88.4194 52.0532C89.0677 52.2522 89.6179 52.5267 90.0699 52.8768C90.522 53.2219 90.8638 53.625 91.0953 54.0861C91.3319 54.5422 91.446 55.0362 91.4378 55.5681L91.3161 63.4123L87.4686 63.3527L87.4936 61.7421L87.4041 61.7407C87.1688 62.1646 86.8851 62.5058 86.5529 62.7642C86.2257 63.0226 85.8524 63.2083 85.433 63.3211C85.0185 63.434 84.5628 63.4866 84.0657 63.4789ZM85.4481 60.9049C85.7612 60.9097 86.0555 60.8496 86.3309 60.7246C86.6113 60.5997 86.8404 60.4168 87.0181 60.1759C87.1959 59.935 87.2875 59.6406 87.2929 59.2926L87.3077 58.3382C87.1976 58.3813 87.0801 58.4217 86.9553 58.4595C86.8353 58.4975 86.7055 58.5327 86.5658 58.5654C86.431 58.5981 86.2864 58.6282 86.1318 58.6556C85.9822 58.6831 85.8252 58.708 85.6608 58.7303C85.3419 58.7751 85.0796 58.8531 84.874 58.9643C84.6735 59.0705 84.5222 59.2049 84.4203 59.3674C84.3234 59.525 84.2734 59.7033 84.2703 59.9021C84.2654 60.2203 84.3734 60.4656 84.5945 60.638C84.8156 60.8105 85.1001 60.8995 85.4481 60.9049ZM114.589 55.0448C114.559 56.9878 114.156 58.6209 113.38 59.9443C112.603 61.262 111.568 62.2546 110.273 62.9221C108.979 63.5839 107.542 63.9026 105.963 63.8781C104.372 63.8534 102.94 63.4874 101.667 62.7801C100.399 62.0672 99.3978 61.0402 98.6629 59.6991C97.9336 58.3524 97.584 56.7132 97.614 54.7816C97.6441 52.8387 98.0444 51.2083 98.8149 49.8906C99.5912 48.5672 100.624 47.5746 101.913 46.9127C103.207 46.2452 104.65 45.9237 106.241 45.9484C107.82 45.9729 109.246 46.3388 110.52 47.0461C111.793 47.7478 112.797 48.772 113.532 50.1188C114.267 51.4599 114.619 53.1019 114.589 55.0448ZM109.715 54.9693C109.731 53.9239 109.605 53.0412 109.338 52.3211C109.077 51.5953 108.679 51.0436 108.145 50.666C107.617 50.2828 106.961 50.0851 106.177 50.0729C105.393 50.0608 104.728 50.238 104.182 50.6046C103.643 50.9656 103.228 51.5046 102.938 52.2218C102.655 52.9334 102.505 53.8119 102.488 54.8572C102.472 55.9026 102.595 56.7881 102.856 57.5138C103.124 58.234 103.521 58.7856 104.05 59.1689C104.584 59.5465 105.243 59.7414 106.027 59.7536C106.811 59.7657 107.472 59.5913 108.012 59.2303C108.558 58.8637 108.972 58.3246 109.256 57.613C109.546 56.8959 109.699 56.0146 109.715 54.9693ZM103.568 44.6114C102.988 44.6024 102.5 44.4016 102.103 44.009C101.705 43.6165 101.511 43.1475 101.519 42.6021C101.528 42.0567 101.737 41.594 102.146 41.2139C102.555 40.8338 103.05 40.6483 103.629 40.6573C104.192 40.666 104.669 40.8666 105.06 41.2591C105.458 41.6517 105.652 42.1206 105.644 42.666C105.635 43.2114 105.426 43.6742 105.017 44.0542C104.613 44.4344 104.13 44.6201 103.568 44.6114ZM108.988 44.6954C108.408 44.6864 107.92 44.4856 107.522 44.0931C107.125 43.7005 106.931 43.2315 106.939 42.6861C106.947 42.1407 107.156 41.678 107.566 41.2979C107.975 40.9179 108.469 40.7323 109.049 40.7413C109.611 40.75 110.088 40.9506 110.48 41.3431C110.877 41.7357 111.072 42.2047 111.063 42.7501C111.055 43.2955 110.846 43.7582 110.437 44.1382C110.033 44.5184 109.55 44.7041 108.988 44.6954ZM125.78 48.6721L129.925 48.7364L129.774 58.5193C129.756 59.6825 129.462 60.6848 128.892 61.5262C128.327 62.3627 127.546 63.0045 126.55 63.4514C125.553 63.8934 124.402 64.1043 123.094 64.084C121.777 64.0636 120.627 63.8171 119.645 63.3444C118.663 62.8667 117.903 62.2011 117.364 61.3475C116.83 60.489 116.573 59.4781 116.591 58.3149L116.742 48.532L120.888 48.5963L120.742 58.0213C120.735 58.4935 120.832 58.9177 121.035 59.2937C121.239 59.6648 121.522 59.9576 121.887 60.1721C122.257 60.3866 122.678 60.4976 123.15 60.5049C123.627 60.5123 124.051 60.4145 124.422 60.2114C124.793 60.0083 125.086 59.7245 125.301 59.3598C125.515 58.9903 125.626 58.5693 125.633 58.0971L125.78 48.6721Z" fill="#64CE41"></path>
</svg>