<svg width="78" height="63" viewBox="0 0 78 63" fill="none" xmlns="http://www.w3.org/2000/svg">
<rect x="3" y="3" width="72" height="57" rx="3" fill="#64CE41" stroke="#64CE41" stroke-width="6"/>
<path d="M45.9237 40.9992C45.6264 41.0078 45.3308 40.9502 45.0588 40.8306C44.7869 40.711 44.5453 40.5324 44.3519 40.3079C44.1585 40.0835 44.0182 39.8188 43.9413 39.5335C43.8644 39.2482 43.8529 38.9493 43.9075 38.659C44.0142 38.0189 44.3415 37.4355 44.8335 37.0086C45.3256 36.5817 45.9517 36.3378 46.6048 36.3188C46.9022 36.3101 47.1977 36.3677 47.4697 36.4874C47.7417 36.607 47.9833 36.7856 48.1766 37.01C48.37 37.2345 48.5103 37.4991 48.5872 37.7845C48.6641 38.0698 48.6757 38.3686 48.621 38.659C48.5144 39.2991 48.187 39.8825 47.695 40.3094C47.203 40.7362 46.5768 40.9801 45.9237 40.9992ZM32.46 38.659C32.5146 38.3686 32.5031 38.0698 32.4262 37.7845C32.3493 37.4991 32.209 37.2345 32.0156 37.01C31.8222 36.7856 31.5806 36.607 31.3087 36.4874C31.0367 36.3677 30.7411 36.3101 30.4438 36.3188C29.7907 36.3378 29.1645 36.5817 28.6725 37.0086C28.1805 37.4355 27.8531 38.0189 27.7465 38.659C27.6918 38.9493 27.7034 39.2482 27.7803 39.5335C27.8572 39.8188 27.9975 40.0835 28.1909 40.3079C28.3843 40.5324 28.6258 40.7109 28.8978 40.8306C29.1698 40.9502 29.4653 41.0078 29.7627 40.9992C30.4158 40.9801 31.0419 40.7362 31.5339 40.3094C32.026 39.8825 32.3533 39.2991 32.46 38.659ZM24.0101 29.069C24.0439 28.8365 24.161 28.6239 24.3398 28.4701C24.5187 28.3163 24.7473 28.2317 24.9839 28.2317H34.09C34.2048 28.2317 34.3184 28.2078 34.4233 28.1614C34.5281 28.1151 34.6221 28.0474 34.699 27.9628C34.7759 27.8781 34.834 27.7784 34.8696 27.67C34.9052 27.5616 34.9175 27.4471 34.9057 27.3337C34.8772 27.1281 34.7735 26.9402 34.6145 26.8055C34.4556 26.6709 34.2523 26.5989 34.0434 26.6034L27.4188 26.5734C27.2894 26.5736 27.1613 26.5485 27.0417 26.4995C26.9221 26.4505 26.8135 26.3786 26.7219 26.2879C26.6304 26.1971 26.5577 26.0893 26.5082 25.9707C26.4586 25.852 26.4331 25.7248 26.4331 25.5964C26.4331 25.4679 26.4586 25.3408 26.5082 25.2221C26.5577 25.1035 26.6304 24.9957 26.7219 24.9049C26.8135 24.8142 26.9221 24.7423 27.0417 24.6933C27.1613 24.6443 27.2894 24.6192 27.4188 24.6194L38.0256 24.6495C38.1404 24.6494 38.254 24.6255 38.3589 24.5792C38.4638 24.5329 38.5577 24.4652 38.6346 24.3805C38.7115 24.2959 38.7696 24.1961 38.8052 24.0878C38.8408 23.9794 38.8531 23.8648 38.8413 23.7514C38.8128 23.5459 38.7091 23.3579 38.5501 23.2233C38.3912 23.0886 38.1879 23.0167 37.979 23.0211H27.3095L27.4099 22.3314C27.4705 21.9674 27.6567 21.6356 27.9366 21.3928C28.2164 21.15 28.5725 21.0113 28.944 21.0005H45.2524C45.4215 20.9956 45.5896 21.0283 45.7443 21.0964C45.899 21.1644 46.0364 21.266 46.1463 21.3936C46.2563 21.5213 46.3361 21.6718 46.3799 21.834C46.4236 21.9963 46.4302 22.1663 46.3991 22.3314L45.9096 25.6952H49.4264C49.756 25.6963 50.0775 25.7965 50.3487 25.9826C50.6198 26.1686 50.8279 26.4319 50.9455 26.7376L52.7805 31.4837C52.9829 32.0072 53.0468 32.5736 52.966 33.1286L52.3442 37.4013C52.3006 37.6635 52.1665 37.9024 51.965 38.0772C51.7635 38.252 51.5071 38.3519 51.2396 38.3597H49.8549C49.8912 37.9658 49.8477 37.5687 49.7269 37.1917C49.6061 36.8148 49.4104 36.4658 49.1515 36.1652C48.8925 35.8646 48.5755 35.6187 48.2192 35.4418C47.8629 35.2649 47.4745 35.1607 47.077 35.1354C45.142 34.9709 43.2095 36.4145 42.7608 38.3597H33.6942C33.7308 37.9655 33.6874 37.5681 33.5666 37.1908C33.4458 36.8136 33.25 36.4643 32.9908 36.1635C32.7317 35.8627 32.4144 35.6165 32.0578 35.4396C31.7012 35.2627 31.3125 35.1586 30.9146 35.1335C28.9793 34.97 27.0474 36.4144 26.5997 38.3597H26.0424C25.9206 38.3632 25.7996 38.3396 25.6882 38.2907C25.5768 38.2417 25.4779 38.1685 25.3987 38.0766C25.3195 37.9847 25.2621 37.8763 25.2306 37.7595C25.1991 37.6426 25.1943 37.5202 25.2167 37.4013L26.0298 31.814H30.1544C30.2692 31.814 30.3828 31.79 30.4877 31.7437C30.5925 31.6974 30.6865 31.6297 30.7634 31.5451C30.8403 31.4604 30.8984 31.3607 30.934 31.2523C30.9696 31.1439 30.9819 31.0293 30.9701 30.9159C30.9416 30.7104 30.8379 30.5224 30.6789 30.3878C30.52 30.2531 30.3167 30.1812 30.1078 30.1857H24.9839C24.8428 30.1857 24.7034 30.1555 24.575 30.0973C24.4467 30.0391 24.3325 29.9541 24.2401 29.8482C24.1477 29.7423 24.0794 29.6179 24.0397 29.4834C24 29.349 23.9899 29.2076 24.0101 29.069ZM44.9534 32.2654L51.7648 32.2794L49.8176 27.1607C49.7873 27.082 49.7337 27.0142 49.6639 26.9663C49.594 26.9184 49.5112 26.8926 49.4264 26.8924H45.7353L44.9534 32.2654Z" fill="#163F58"/>
</svg>
